<?xml version="1.0" encoding="UTF-8" standalone="no"?><svg xmlns="http://www.w3.org/2000/svg" xmlns:xlink="http://www.w3.org/1999/xlink" contentScriptType="application/ecmascript" contentStyleType="text/css" height="799px" preserveAspectRatio="none" style="width:561px;height:799px;" version="1.1" viewBox="0 0 561 799" width="561px" zoomAndPan="magnify"><defs><filter height="300%" id="fvmoohraqa3wb" width="300%" x="-1" y="-1"><feGaussianBlur result="blurOut" stdDeviation="2.0"/><feColorMatrix in="blurOut" result="blurOut2" type="matrix" values="0 0 0 0 0 0 0 0 0 0 0 0 0 0 0 0 0 0 .4 0"/><feOffset dx="4.0" dy="4.0" in="blurOut2" result="blurOut3"/><feBlend in="SourceGraphic" in2="blurOut3" mode="normal"/></filter></defs><g><rect fill="#FEFECE" filter="url(#fvmoohraqa3wb)" height="36.2969" rx="12.5" ry="12.5" style="stroke: #A80036; stroke-width: 1.5;" width="176" x="10" y="385.9297"/><text fill="#000000" font-family="sans-serif" font-size="14" lengthAdjust="spacingAndGlyphs" textLength="156" x="20" y="408.9248">Ingénierie Biomédicale</text><rect fill="#FEFECE" filter="url(#fvmoohraqa3wb)" height="36.2969" rx="12.5" ry="12.5" style="stroke: #A80036; stroke-width: 1.5;" width="75" x="236" y="76.2969"/><text fill="#000000" font-family="sans-serif" font-size="14" lengthAdjust="spacingAndGlyphs" textLength="55" x="246" y="99.292">Biologie</text><rect fill="#FEFECE" filter="url(#fvmoohraqa3wb)" height="36.2969" rx="12.5" ry="12.5" style="stroke: #A80036; stroke-width: 1.5;" width="87" x="361" y="20"/><text fill="#000000" font-family="sans-serif" font-size="14" lengthAdjust="spacingAndGlyphs" textLength="67" x="371" y="42.9951">Biochimie</text><path d="M311,94.4453 L321,94.4453 C336,94.4453 336,38.1484 351,38.1484 L361,38.1484 " fill="none" style="stroke: #A80036; stroke-width: 1.0;"/><rect fill="#FEFECE" filter="url(#fvmoohraqa3wb)" height="36.2969" rx="12.5" ry="12.5" style="stroke: #A80036; stroke-width: 1.5;" width="105" x="361" y="76.2969"/><text fill="#000000" font-family="sans-serif" font-size="14" lengthAdjust="spacingAndGlyphs" textLength="85" x="371" y="99.292">Biophysique</text><path d="M311,94.4453 L321,94.4453 C336,94.4453 336,94.4453 351,94.4453 L361,94.4453 " fill="none" style="stroke: #A80036; stroke-width: 1.0;"/><rect fill="#FEFECE" filter="url(#fvmoohraqa3wb)" height="36.2969" rx="12.5" ry="12.5" style="stroke: #A80036; stroke-width: 1.5;" width="98" x="361" y="132.5938"/><text fill="#000000" font-family="sans-serif" font-size="14" lengthAdjust="spacingAndGlyphs" textLength="78" x="371" y="155.5889">Physiologie</text><path d="M311,94.4453 L321,94.4453 C336,94.4453 336,150.7422 351,150.7422 L361,150.7422 " fill="none" style="stroke: #A80036; stroke-width: 1.0;"/><path d="M186,404.0781 L196,404.0781 C211,404.0781 211,94.4453 226,94.4453 L236,94.4453 " fill="none" style="stroke: #A80036; stroke-width: 1.0;"/><rect fill="#FEFECE" filter="url(#fvmoohraqa3wb)" height="36.2969" rx="12.5" ry="12.5" style="stroke: #A80036; stroke-width: 1.5;" width="88" x="236" y="245.1875"/><text fill="#000000" font-family="sans-serif" font-size="14" lengthAdjust="spacingAndGlyphs" textLength="68" x="246" y="268.1826">Médecine</text><rect fill="#FEFECE" filter="url(#fvmoohraqa3wb)" height="36.2969" rx="12.5" ry="12.5" style="stroke: #A80036; stroke-width: 1.5;" width="82" x="374" y="188.8906"/><text fill="#000000" font-family="sans-serif" font-size="14" lengthAdjust="spacingAndGlyphs" textLength="62" x="384" y="211.8857">Chirurgie</text><path d="M324,263.3359 L334,263.3359 C349,263.3359 349,207.0391 364,207.0391 L374,207.0391 " fill="none" style="stroke: #A80036; stroke-width: 1.0;"/><rect fill="#FEFECE" filter="url(#fvmoohraqa3wb)" height="36.2969" rx="12.5" ry="12.5" style="stroke: #A80036; stroke-width: 1.5;" width="112" x="374" y="245.1875"/><text fill="#000000" font-family="sans-serif" font-size="14" lengthAdjust="spacingAndGlyphs" textLength="92" x="384" y="268.1826">Diagnostique</text><path d="M324,263.3359 L334,263.3359 C349,263.3359 349,263.3359 364,263.3359 L374,263.3359 " fill="none" style="stroke: #A80036; stroke-width: 1.0;"/><rect fill="#FEFECE" filter="url(#fvmoohraqa3wb)" height="36.2969" rx="12.5" ry="12.5" style="stroke: #A80036; stroke-width: 1.5;" width="122" x="374" y="301.4844"/><text fill="#000000" font-family="sans-serif" font-size="14" lengthAdjust="spacingAndGlyphs" textLength="102" x="384" y="324.4795">Thérapeutique</text><path d="M324,263.3359 L334,263.3359 C349,263.3359 349,319.6328 364,319.6328 L374,319.6328 " fill="none" style="stroke: #A80036; stroke-width: 1.0;"/><path d="M186,404.0781 L196,404.0781 C211,404.0781 211,263.3359 226,263.3359 L236,263.3359 " fill="none" style="stroke: #A80036; stroke-width: 1.0;"/><rect fill="#FEFECE" filter="url(#fvmoohraqa3wb)" height="36.2969" rx="12.5" ry="12.5" style="stroke: #A80036; stroke-width: 1.5;" width="88" x="236" y="442.2266"/><text fill="#000000" font-family="sans-serif" font-size="14" lengthAdjust="spacingAndGlyphs" textLength="68" x="246" y="465.2217">Ingénierie</text><rect fill="#FEFECE" filter="url(#fvmoohraqa3wb)" height="36.2969" rx="12.5" ry="12.5" style="stroke: #A80036; stroke-width: 1.5;" width="96" x="374" y="357.7813"/><text fill="#000000" font-family="sans-serif" font-size="14" lengthAdjust="spacingAndGlyphs" textLength="76" x="384" y="380.7764">Mécanique</text><path d="M324,460.375 L334,460.375 C349,460.375 349,375.9297 364,375.9297 L374,375.9297 " fill="none" style="stroke: #A80036; stroke-width: 1.0;"/><rect fill="#FEFECE" filter="url(#fvmoohraqa3wb)" height="36.2969" rx="12.5" ry="12.5" style="stroke: #A80036; stroke-width: 1.5;" width="107" x="374" y="414.0781"/><text fill="#000000" font-family="sans-serif" font-size="14" lengthAdjust="spacingAndGlyphs" textLength="87" x="384" y="437.0732">Électronique</text><path d="M324,460.375 L334,460.375 C349,460.375 349,432.2266 364,432.2266 L374,432.2266 " fill="none" style="stroke: #A80036; stroke-width: 1.0;"/><rect fill="#FEFECE" filter="url(#fvmoohraqa3wb)" height="36.2969" rx="12.5" ry="12.5" style="stroke: #A80036; stroke-width: 1.5;" width="106" x="374" y="470.375"/><text fill="#000000" font-family="sans-serif" font-size="14" lengthAdjust="spacingAndGlyphs" textLength="86" x="384" y="493.3701">Informatique</text><path d="M324,460.375 L334,460.375 C349,460.375 349,488.5234 364,488.5234 L374,488.5234 " fill="none" style="stroke: #A80036; stroke-width: 1.0;"/><rect fill="#FEFECE" filter="url(#fvmoohraqa3wb)" height="36.2969" rx="12.5" ry="12.5" style="stroke: #A80036; stroke-width: 1.5;" width="67" x="374" y="526.6719"/><text fill="#000000" font-family="sans-serif" font-size="14" lengthAdjust="spacingAndGlyphs" textLength="47" x="384" y="549.667">Chimie</text><path d="M324,460.375 L334,460.375 C349,460.375 349,544.8203 364,544.8203 L374,544.8203 " fill="none" style="stroke: #A80036; stroke-width: 1.0;"/><path d="M186,404.0781 L196,404.0781 C211,404.0781 211,460.375 226,460.375 L236,460.375 " fill="none" style="stroke: #A80036; stroke-width: 1.0;"/><rect fill="#FEFECE" filter="url(#fvmoohraqa3wb)" height="36.2969" rx="12.5" ry="12.5" style="stroke: #A80036; stroke-width: 1.5;" width="103" x="236" y="667.4141"/><text fill="#000000" font-family="sans-serif" font-size="14" lengthAdjust="spacingAndGlyphs" textLength="83" x="246" y="690.4092">Applications</text><rect fill="#FEFECE" filter="url(#fvmoohraqa3wb)" height="36.2969" rx="12.5" ry="12.5" style="stroke: #A80036; stroke-width: 1.5;" width="161" x="389" y="582.9688"/><text fill="#000000" font-family="sans-serif" font-size="14" lengthAdjust="spacingAndGlyphs" textLength="141" x="399" y="605.9639">Dispositifs médicaux</text><path d="M339,685.5625 L349,685.5625 C364,685.5625 364,601.1172 379,601.1172 L389,601.1172 " fill="none" style="stroke: #A80036; stroke-width: 1.0;"/><rect fill="#FEFECE" filter="url(#fvmoohraqa3wb)" height="36.2969" rx="12.5" ry="12.5" style="stroke: #A80036; stroke-width: 1.5;" width="109" x="389" y="639.2656"/><text fill="#000000" font-family="sans-serif" font-size="14" lengthAdjust="spacingAndGlyphs" textLength="89" x="399" y="662.2607">Biomatériaux</text><path d="M339,685.5625 L349,685.5625 C364,685.5625 364,657.4141 379,657.4141 L389,657.4141 " fill="none" style="stroke: #A80036; stroke-width: 1.0;"/><rect fill="#FEFECE" filter="url(#fvmoohraqa3wb)" height="36.2969" rx="12.5" ry="12.5" style="stroke: #A80036; stroke-width: 1.5;" width="79" x="389" y="695.5625"/><text fill="#000000" font-family="sans-serif" font-size="14" lengthAdjust="spacingAndGlyphs" textLength="59" x="399" y="718.5576">Imagerie</text><path d="M339,685.5625 L349,685.5625 C364,685.5625 364,713.7109 379,713.7109 L389,713.7109 " fill="none" style="stroke: #A80036; stroke-width: 1.0;"/><rect fill="#FEFECE" filter="url(#fvmoohraqa3wb)" height="36.2969" rx="12.5" ry="12.5" style="stroke: #A80036; stroke-width: 1.5;" width="107" x="389" y="751.8594"/><text fill="#000000" font-family="sans-serif" font-size="14" lengthAdjust="spacingAndGlyphs" textLength="87" x="399" y="774.8545">Modélisation</text><path d="M339,685.5625 L349,685.5625 C364,685.5625 364,770.0078 379,770.0078 L389,770.0078 " fill="none" style="stroke: #A80036; stroke-width: 1.0;"/><path d="M186,404.0781 L196,404.0781 C211,404.0781 211,685.5625 226,685.5625 L236,685.5625 " fill="none" style="stroke: #A80036; stroke-width: 1.0;"/><!--MD5=[91bda09c0cef8e9b532d4dc28d8ba4e5]
@startmindmap
* Ingénierie Biomédicale
** Biologie
*** Biochimie
*** Biophysique
*** Physiologie
** Médecine
*** Chirurgie
*** Diagnostique
*** Thérapeutique
** Ingénierie
*** Mécanique
*** Électronique
*** Informatique
*** Chimie
** Applications
*** Dispositifs médicaux
*** Biomatériaux
*** Imagerie
*** Modélisation
@endmindmap

PlantUML version 1.2020.02(Sun Mar 01 10:22:07 UTC 2020)
(GPL source distribution)
Java Runtime: OpenJDK Runtime Environment
JVM: OpenJDK 64-Bit Server VM
Java Version: 17.0.18+8
Operating System: Linux
Default Encoding: UTF-8
Language: en
Country: null
--></g></svg>