<?xml version="1.0" encoding="UTF-8" standalone="no"?><svg xmlns="http://www.w3.org/2000/svg" xmlns:xlink="http://www.w3.org/1999/xlink" contentScriptType="application/ecmascript" contentStyleType="text/css" height="898px" preserveAspectRatio="none" style="width:773px;height:898px;background:#F8F9FA;" version="1.1" viewBox="0 0 773 898" width="773px" zoomAndPan="magnify"><defs/><g><ellipse cx="511.625" cy="20" fill="#000000" rx="10" ry="10" style="stroke: none; stroke-width: 1.0;"/><rect fill="#E3F2FD" height="33.9688" rx="12.5" ry="12.5" style="stroke: #1565C0; stroke-width: 1.5;" width="219" x="402.125" y="50"/><text fill="#1A2B3C" font-family="sans-serif" font-size="12" lengthAdjust="spacingAndGlyphs" textLength="199" x="412.125" y="71.1387">Identification du besoin médical</text><rect fill="#E3F2FD" height="47.9375" rx="12.5" ry="12.5" style="stroke: #1565C0; stroke-width: 1.5;" width="153" x="435.125" y="103.9688"/><text fill="#1A2B3C" font-family="sans-serif" font-size="12" lengthAdjust="spacingAndGlyphs" textLength="133" x="445.125" y="125.1074">Recherche &amp; analyse</text><text fill="#1A2B3C" font-family="sans-serif" font-size="12" lengthAdjust="spacingAndGlyphs" textLength="100" x="445.125" y="139.0762">de l'état de l'art</text><rect fill="#E3F2FD" height="47.9375" rx="12.5" ry="12.5" style="stroke: #1565C0; stroke-width: 1.5;" width="168" x="427.625" y="171.9063"/><text fill="#1A2B3C" font-family="sans-serif" font-size="12" lengthAdjust="spacingAndGlyphs" textLength="148" x="437.625" y="193.0449">Conception préliminaire</text><text fill="#1A2B3C" font-family="sans-serif" font-size="12" lengthAdjust="spacingAndGlyphs" textLength="129" x="437.625" y="207.0137">(prototypage virtuel)</text><rect fill="#E3F2FD" height="47.9375" rx="12.5" ry="12.5" style="stroke: #1565C0; stroke-width: 1.5;" width="165" x="429.125" y="239.8438"/><text fill="#1A2B3C" font-family="sans-serif" font-size="12" lengthAdjust="spacingAndGlyphs" textLength="84" x="439.125" y="260.9824">Tests in silico</text><text fill="#1A2B3C" font-family="sans-serif" font-size="12" lengthAdjust="spacingAndGlyphs" textLength="145" x="439.125" y="274.9512">(simulation numérique)</text><polygon fill="#FEFECE" points="446.625,307.7813,576.625,307.7813,588.625,319.7813,576.625,331.7813,446.625,331.7813,434.625,319.7813,446.625,307.7813" style="stroke: #A80036; stroke-width: 1.5;"/><text fill="#000000" font-family="sans-serif" font-size="11" lengthAdjust="spacingAndGlyphs" textLength="130" x="446.625" y="323.5894">Validation numérique ?</text><text fill="#000000" font-family="sans-serif" font-size="11" lengthAdjust="spacingAndGlyphs" textLength="17" x="417.625" y="317.187">oui</text><text fill="#000000" font-family="sans-serif" font-size="11" lengthAdjust="spacingAndGlyphs" textLength="21" x="588.625" y="317.187">non</text><rect fill="#E3F2FD" height="33.9688" rx="12.5" ry="12.5" style="stroke: #1565C0; stroke-width: 1.5;" width="141" x="272.25" y="341.7813"/><text fill="#1A2B3C" font-family="sans-serif" font-size="12" lengthAdjust="spacingAndGlyphs" textLength="121" x="282.25" y="362.9199">Prototype physique</text><rect fill="#E3F2FD" height="33.9688" rx="12.5" ry="12.5" style="stroke: #1565C0; stroke-width: 1.5;" width="100" x="292.75" y="395.75"/><text fill="#1A2B3C" font-family="sans-serif" font-size="12" lengthAdjust="spacingAndGlyphs" textLength="80" x="302.75" y="416.8887">Tests in vitro</text><polygon fill="#FEFECE" points="289.25,449.7188,396.25,449.7188,408.25,461.7188,396.25,473.7188,289.25,473.7188,277.25,461.7188,289.25,449.7188" style="stroke: #A80036; stroke-width: 1.5;"/><text fill="#000000" font-family="sans-serif" font-size="11" lengthAdjust="spacingAndGlyphs" textLength="107" x="289.25" y="465.5269">Tests concluants ?</text><text fill="#000000" font-family="sans-serif" font-size="11" lengthAdjust="spacingAndGlyphs" textLength="17" x="260.25" y="459.1245">oui</text><text fill="#000000" font-family="sans-serif" font-size="11" lengthAdjust="spacingAndGlyphs" textLength="21" x="408.25" y="459.1245">non</text><rect fill="#E3F2FD" height="33.9688" rx="12.5" ry="12.5" style="stroke: #1565C0; stroke-width: 1.5;" width="186" x="105" y="483.7188"/><text fill="#1A2B3C" font-family="sans-serif" font-size="12" lengthAdjust="spacingAndGlyphs" textLength="166" x="115" y="504.8574">Tests précliniques (in vivo)</text><polygon fill="#FEFECE" points="130.5,537.6875,265.5,537.6875,277.5,549.6875,265.5,561.6875,130.5,561.6875,118.5,549.6875,130.5,537.6875" style="stroke: #A80036; stroke-width: 1.5;"/><text fill="#000000" font-family="sans-serif" font-size="11" lengthAdjust="spacingAndGlyphs" textLength="135" x="130.5" y="553.4956">Résultats acceptables ?</text><text fill="#000000" font-family="sans-serif" font-size="11" lengthAdjust="spacingAndGlyphs" textLength="17" x="101.5" y="547.0933">oui</text><text fill="#000000" font-family="sans-serif" font-size="11" lengthAdjust="spacingAndGlyphs" textLength="21" x="277.5" y="547.0933">non</text><rect fill="#E3F2FD" height="33.9688" rx="12.5" ry="12.5" style="stroke: #1565C0; stroke-width: 1.5;" width="119" x="42" y="571.6875"/><text fill="#1A2B3C" font-family="sans-serif" font-size="12" lengthAdjust="spacingAndGlyphs" textLength="99" x="52" y="592.8262">Essais cliniques</text><rect fill="#E3F2FD" height="47.9375" rx="12.5" ry="12.5" style="stroke: #1565C0; stroke-width: 1.5;" width="183" x="10" y="625.6563"/><text fill="#1A2B3C" font-family="sans-serif" font-size="12" lengthAdjust="spacingAndGlyphs" textLength="163" x="20" y="646.7949">Soumission réglementaire</text><text fill="#1A2B3C" font-family="sans-serif" font-size="12" lengthAdjust="spacingAndGlyphs" textLength="96" x="20" y="660.7637">(FDA / CE Mark)</text><rect fill="#E3F2FD" height="33.9688" rx="12.5" ry="12.5" style="stroke: #1565C0; stroke-width: 1.5;" width="138" x="32.5" y="693.5938"/><text fill="#1A2B3C" font-family="sans-serif" font-size="12" lengthAdjust="spacingAndGlyphs" textLength="118" x="42.5" y="714.7324">Mise sur le marché</text><ellipse cx="101.5" cy="758.5625" fill="#FFFFFF" rx="11" ry="11" style="stroke: #000000; stroke-width: 1.0;"/><ellipse cx="101.5" cy="758.5625" fill="#000000" rx="6" ry="6" style="stroke: #7F7F7F; stroke-width: 1.0;"/><rect fill="#E3F2FD" height="33.9688" rx="12.5" ry="12.5" style="stroke: #1565C0; stroke-width: 1.5;" width="163" x="213" y="571.6875"/><text fill="#1A2B3C" font-family="sans-serif" font-size="12" lengthAdjust="spacingAndGlyphs" textLength="143" x="223" y="592.8262">Retour à la conception</text><rect fill="#E3F2FD" height="33.9688" rx="12.5" ry="12.5" style="stroke: #1565C0; stroke-width: 1.5;" width="163" x="406" y="483.7188"/><text fill="#1A2B3C" font-family="sans-serif" font-size="12" lengthAdjust="spacingAndGlyphs" textLength="143" x="416" y="504.8574">Retour à la conception</text><polygon fill="#FEFECE" points="342.75,779.5625,354.75,791.5625,342.75,803.5625,330.75,791.5625,342.75,779.5625" style="stroke: #A80036; stroke-width: 1.5;"/><rect fill="#E3F2FD" height="33.9688" rx="12.5" ry="12.5" style="stroke: #1565C0; stroke-width: 1.5;" width="163" x="599" y="341.7813"/><text fill="#1A2B3C" font-family="sans-serif" font-size="12" lengthAdjust="spacingAndGlyphs" textLength="143" x="609" y="362.9199">Retour à la conception</text><polygon fill="#FEFECE" points="511.625,809.5625,523.625,821.5625,511.625,833.5625,499.625,821.5625,511.625,809.5625" style="stroke: #A80036; stroke-width: 1.5;"/><rect fill="#E3F2FD" height="33.9688" rx="12.5" ry="12.5" style="stroke: #1565C0; stroke-width: 1.5;" width="167" x="428.125" y="853.5625"/><text fill="#1A2B3C" font-family="sans-serif" font-size="12" lengthAdjust="spacingAndGlyphs" textLength="147" x="438.125" y="874.7012">Itération de conception</text><line style="stroke: #1565C0; stroke-width: 1.5;" x1="511.625" x2="511.625" y1="30" y2="50"/><polygon fill="#1565C0" points="507.625,40,511.625,50,515.625,40,511.625,44" style="stroke: #1565C0; stroke-width: 1.0;"/><line style="stroke: #1565C0; stroke-width: 1.5;" x1="511.625" x2="511.625" y1="83.9688" y2="103.9688"/><polygon fill="#1565C0" points="507.625,93.9688,511.625,103.9688,515.625,93.9688,511.625,97.9688" style="stroke: #1565C0; stroke-width: 1.0;"/><line style="stroke: #1565C0; stroke-width: 1.5;" x1="511.625" x2="511.625" y1="151.9063" y2="171.9063"/><polygon fill="#1565C0" points="507.625,161.9063,511.625,171.9063,515.625,161.9063,511.625,165.9063" style="stroke: #1565C0; stroke-width: 1.0;"/><line style="stroke: #1565C0; stroke-width: 1.5;" x1="511.625" x2="511.625" y1="219.8438" y2="239.8438"/><polygon fill="#1565C0" points="507.625,229.8438,511.625,239.8438,515.625,229.8438,511.625,233.8438" style="stroke: #1565C0; stroke-width: 1.0;"/><line style="stroke: #1565C0; stroke-width: 1.5;" x1="342.75" x2="342.75" y1="375.75" y2="395.75"/><polygon fill="#1565C0" points="338.75,385.75,342.75,395.75,346.75,385.75,342.75,389.75" style="stroke: #1565C0; stroke-width: 1.0;"/><line style="stroke: #1565C0; stroke-width: 1.5;" x1="101.5" x2="101.5" y1="605.6563" y2="625.6563"/><polygon fill="#1565C0" points="97.5,615.6563,101.5,625.6563,105.5,615.6563,101.5,619.6563" style="stroke: #1565C0; stroke-width: 1.0;"/><line style="stroke: #1565C0; stroke-width: 1.5;" x1="101.5" x2="101.5" y1="673.5938" y2="693.5938"/><polygon fill="#1565C0" points="97.5,683.5938,101.5,693.5938,105.5,683.5938,101.5,687.5938" style="stroke: #1565C0; stroke-width: 1.0;"/><line style="stroke: #1565C0; stroke-width: 1.5;" x1="101.5" x2="101.5" y1="727.5625" y2="747.5625"/><polygon fill="#1565C0" points="97.5,737.5625,101.5,747.5625,105.5,737.5625,101.5,741.5625" style="stroke: #1565C0; stroke-width: 1.0;"/><line style="stroke: #1565C0; stroke-width: 1.5;" x1="118.5" x2="101.5" y1="549.6875" y2="549.6875"/><line style="stroke: #1565C0; stroke-width: 1.5;" x1="101.5" x2="101.5" y1="549.6875" y2="571.6875"/><polygon fill="#1565C0" points="97.5,561.6875,101.5,571.6875,105.5,561.6875,101.5,565.6875" style="stroke: #1565C0; stroke-width: 1.0;"/><line style="stroke: #1565C0; stroke-width: 1.5;" x1="277.5" x2="294.5" y1="549.6875" y2="549.6875"/><line style="stroke: #1565C0; stroke-width: 1.5;" x1="294.5" x2="294.5" y1="549.6875" y2="571.6875"/><polygon fill="#1565C0" points="290.5,561.6875,294.5,571.6875,298.5,561.6875,294.5,565.6875" style="stroke: #1565C0; stroke-width: 1.0;"/><line style="stroke: #1565C0; stroke-width: 1.5;" x1="294.5" x2="294.5" y1="605.6563" y2="791.5625"/><line style="stroke: #1565C0; stroke-width: 1.5;" x1="294.5" x2="330.75" y1="791.5625" y2="791.5625"/><polygon fill="#1565C0" points="320.75,787.5625,330.75,791.5625,320.75,795.5625,324.75,791.5625" style="stroke: #1565C0; stroke-width: 1.0;"/><line style="stroke: #1565C0; stroke-width: 1.5;" x1="198" x2="198" y1="517.6875" y2="537.6875"/><polygon fill="#1565C0" points="194,527.6875,198,537.6875,202,527.6875,198,531.6875" style="stroke: #1565C0; stroke-width: 1.0;"/><line style="stroke: #1565C0; stroke-width: 1.5;" x1="277.25" x2="198" y1="461.7188" y2="461.7188"/><line style="stroke: #1565C0; stroke-width: 1.5;" x1="198" x2="198" y1="461.7188" y2="483.7188"/><polygon fill="#1565C0" points="194,473.7188,198,483.7188,202,473.7188,198,477.7188" style="stroke: #1565C0; stroke-width: 1.0;"/><line style="stroke: #1565C0; stroke-width: 1.5;" x1="408.25" x2="487.5" y1="461.7188" y2="461.7188"/><line style="stroke: #1565C0; stroke-width: 1.5;" x1="487.5" x2="487.5" y1="461.7188" y2="483.7188"/><polygon fill="#1565C0" points="483.5,473.7188,487.5,483.7188,491.5,473.7188,487.5,477.7188" style="stroke: #1565C0; stroke-width: 1.0;"/><line style="stroke: #1565C0; stroke-width: 1.5;" x1="487.5" x2="487.5" y1="517.6875" y2="791.5625"/><line style="stroke: #1565C0; stroke-width: 1.5;" x1="487.5" x2="354.75" y1="791.5625" y2="791.5625"/><polygon fill="#1565C0" points="364.75,787.5625,354.75,791.5625,364.75,795.5625,360.75,791.5625" style="stroke: #1565C0; stroke-width: 1.0;"/><line style="stroke: #1565C0; stroke-width: 1.5;" x1="342.75" x2="342.75" y1="429.7188" y2="449.7188"/><polygon fill="#1565C0" points="338.75,439.7188,342.75,449.7188,346.75,439.7188,342.75,443.7188" style="stroke: #1565C0; stroke-width: 1.0;"/><line style="stroke: #1565C0; stroke-width: 1.5;" x1="434.625" x2="342.75" y1="319.7813" y2="319.7813"/><line style="stroke: #1565C0; stroke-width: 1.5;" x1="342.75" x2="342.75" y1="319.7813" y2="341.7813"/><polygon fill="#1565C0" points="338.75,331.7813,342.75,341.7813,346.75,331.7813,342.75,335.7813" style="stroke: #1565C0; stroke-width: 1.0;"/><line style="stroke: #1565C0; stroke-width: 1.5;" x1="588.625" x2="680.5" y1="319.7813" y2="319.7813"/><line style="stroke: #1565C0; stroke-width: 1.5;" x1="680.5" x2="680.5" y1="319.7813" y2="341.7813"/><polygon fill="#1565C0" points="676.5,331.7813,680.5,341.7813,684.5,331.7813,680.5,335.7813" style="stroke: #1565C0; stroke-width: 1.0;"/><line style="stroke: #1565C0; stroke-width: 1.5;" x1="342.75" x2="342.75" y1="803.5625" y2="821.5625"/><line style="stroke: #1565C0; stroke-width: 1.5;" x1="342.75" x2="499.625" y1="821.5625" y2="821.5625"/><polygon fill="#1565C0" points="489.625,817.5625,499.625,821.5625,489.625,825.5625,493.625,821.5625" style="stroke: #1565C0; stroke-width: 1.0;"/><line style="stroke: #1565C0; stroke-width: 1.5;" x1="680.5" x2="680.5" y1="375.75" y2="821.5625"/><line style="stroke: #1565C0; stroke-width: 1.5;" x1="680.5" x2="523.625" y1="821.5625" y2="821.5625"/><polygon fill="#1565C0" points="533.625,817.5625,523.625,821.5625,533.625,825.5625,529.625,821.5625" style="stroke: #1565C0; stroke-width: 1.0;"/><line style="stroke: #1565C0; stroke-width: 1.5;" x1="511.625" x2="511.625" y1="287.7813" y2="307.7813"/><polygon fill="#1565C0" points="507.625,297.7813,511.625,307.7813,515.625,297.7813,511.625,301.7813" style="stroke: #1565C0; stroke-width: 1.0;"/><line style="stroke: #1565C0; stroke-width: 1.5;" x1="511.625" x2="511.625" y1="833.5625" y2="853.5625"/><polygon fill="#1565C0" points="507.625,843.5625,511.625,853.5625,515.625,843.5625,511.625,847.5625" style="stroke: #1565C0; stroke-width: 1.0;"/><!--MD5=[27eec3916308633cdd45a19542008d93]
@startuml
skinparam backgroundColor #F8F9FA
skinparam shadowing false
skinparam ArrowColor #1565C0
skinparam ActivityBorderColor #1565C0
skinparam ActivityBackgroundColor #E3F2FD
skinparam ActivityFontColor #1A2B3C

start
:Identification du besoin médical;
:Recherche & analyse\nde l'état de l'art;
:Conception préliminaire\n(prototypage virtuel);
:Tests in silico\n(simulation numérique);
if (Validation numérique ?) then (oui)
  :Prototype physique;
  :Tests in vitro;
  if (Tests concluants ?) then (oui)
    :Tests précliniques (in vivo);
    if (Résultats acceptables ?) then (oui)
      :Essais cliniques;
      :Soumission réglementaire\n(FDA / CE Mark);
      :Mise sur le marché;
      stop
    else (non)
      :Retour à la conception;
    endif
  else (non)
    :Retour à la conception;
  endif
else (non)
  :Retour à la conception;
endif
:Itération de conception;
-> Nouveau cycle;
@enduml

PlantUML version 1.2020.02(Sun Mar 01 10:22:07 UTC 2020)
(GPL source distribution)
Java Runtime: OpenJDK Runtime Environment
JVM: OpenJDK 64-Bit Server VM
Java Version: 17.0.18+8
Operating System: Linux
Default Encoding: UTF-8
Language: en
Country: null
--></g></svg>